HIERARCHY
ROOT SpineBase
{
  OFFSET 0.000000 0.000000 0.000000
  CHANNELS 6 Xposition Yposition Zposition Zrotation Xrotation Yrotation
  JOINT SpineMid
  {
    OFFSET 0.000000 30.014935 0.000000
    CHANNELS 3 Zrotation Xrotation Yrotation
    JOINT SpineShoulder
    {
      OFFSET -0.146807 22.299726 -0.967277
      CHANNELS 3 Zrotation Xrotation Yrotation
      JOINT Neck
      {
        OFFSET -0.032789 7.391873 -0.678472
        CHANNELS 3 Zrotation Xrotation Yrotation
        JOINT Head
        {
          OFFSET -4.313421 13.345545 -0.195974
          CHANNELS 3 Zrotation Xrotation Yrotation
          End Site
          {
            OFFSET 0 0 0
          }
        }
      }
      JOINT ShoulderLeft
      {
        OFFSET -15.915912 -5.292796 4.733664
        CHANNELS 3 Zrotation Xrotation Yrotation
        JOINT ElbowLeft
        {
          OFFSET -1.896481 -26.574247 0.891605
          CHANNELS 3 Zrotation Xrotation Yrotation
          JOINT WristLeft
          {
            OFFSET 0.904776 -21.867786 -1.600139
            CHANNELS 3 Zrotation Xrotation Yrotation
            JOINT HandLeft
            {
              OFFSET -0.614909 -3.769200 1.245499
              CHANNELS 3 Zrotation Xrotation Yrotation
              JOINT HandTipLeft
              {
                OFFSET 0.630319 -5.271503 0.607362
                CHANNELS 3 Zrotation Xrotation Yrotation
                End Site
                {
                  OFFSET 0 0 0
                }
              }
              JOINT ThumbLeft
              {
                OFFSET -2.550379 0.201182 -2.509550
                CHANNELS 3 Zrotation Xrotation Yrotation
                End Site
                {
                  OFFSET 0 0 0
                }
              }
            }
          }
        }
      }
      JOINT ShoulderRight
      {
        OFFSET 14.669025 -2.873338 -7.772247
        CHANNELS 3 Zrotation Xrotation Yrotation
        JOINT ElbowRight
        {
          OFFSET 5.154841 -25.539546 -2.367083
          CHANNELS 3 Zrotation Xrotation Yrotation
          JOINT WristRight
          {
            OFFSET -0.300007 -20.240438 -6.456645
            CHANNELS 3 Zrotation Xrotation Yrotation
            JOINT HandRight
            {
              OFFSET 0.219245 -5.282586 -2.767020
              CHANNELS 3 Zrotation Xrotation Yrotation
              JOINT HandTipRight
              {
                OFFSET -0.192039 -4.917136 -3.868607
                CHANNELS 3 Zrotation Xrotation Yrotation
                End Site
                {
                  OFFSET 0 0 0
                }
              }
              JOINT ThumbRight
              {
                OFFSET -3.819122 1.081154 0.830717
                CHANNELS 3 Zrotation Xrotation Yrotation
                End Site
                {
                  OFFSET 0 0 0
                }
              }
            }
          }
        }
      }
    }
  }
  JOINT HipLeft
  {
    OFFSET -6.446453 0.618367 -0.908117
    CHANNELS 3 Zrotation Xrotation Yrotation
    JOINT KneeLeft
    {
      OFFSET 5.067688 -27.831034 5.127844
      CHANNELS 3 Zrotation Xrotation Yrotation
      JOINT AnkleLeft
      {
        OFFSET 4.378065 -31.804604 5.872599
        CHANNELS 3 Zrotation Xrotation Yrotation
        JOINT FootLeft
        {
          OFFSET 6.197176 -5.586590 -5.611363
          CHANNELS 3 Zrotation Xrotation Yrotation
          End Site
          {
            OFFSET 0 0 0
          }
        }
      }
    }
  }
  JOINT HipRight
  {
    OFFSET 7.082914 1.137508 -5.942902
    CHANNELS 3 Zrotation Xrotation Yrotation
    JOINT KneeRight
    {
      OFFSET 8.091024 -28.780903 3.718547
      CHANNELS 3 Zrotation Xrotation Yrotation
      JOINT AnkleRight
      {
        OFFSET 3.112621 -31.445461 6.292441
        CHANNELS 3 Zrotation Xrotation Yrotation
        JOINT FootRight
        {
          OFFSET -3.324379 -7.419137 -3.959904
          CHANNELS 3 Zrotation Xrotation Yrotation
          End Site
          {
            OFFSET 0 0 0
          }
        }
      }
    }
  }
}
MOTION
Frames: 6
Frame Time: 0.033333
-34.638348 68.963554 340.676533 2.488645 0.090340 23.310674 -0.066364 0.839280 -23.232211 -0.087723 0.333755 0.086685 3.966324 -1.103249 0.018272 0.000000 0.000000 0.000000 -58.733622 19.830018 6.194078 -158.008970 22.611658 -27.835153 -16.199814 20.039605 82.576836 23.389950 -1.142658 -130.428801 0.000000 0.000000 0.000000 0.000000 0.000000 0.000000 66.177196 58.686012 -30.494222 158.698430 21.180406 -30.437966 12.665503 -4.534441 31.246915 50.155152 39.814978 49.535152 0.000000 0.000000 0.000000 0.000000 0.000000 0.000000 -4.143162 -0.611222 -23.871116 1.502452 3.871879 0.865433 -0.144537 -2.322528 -1.298251 0.000000 0.000000 0.000000 -3.793655 1.388404 -23.503223 4.885574 0.618701 0.927945 -6.371629 -7.988537 4.139262 0.000000 0.000000 0.000000
-34.616635 68.926687 340.722958 2.527991 0.146517 22.997552 -0.051189 0.840718 -22.918204 -0.092330 0.331596 0.088672 3.205776 -1.705133 -0.154203 0.000000 0.000000 0.000000 -52.369394 17.949126 4.406400 -160.297403 24.225777 -41.689590 -16.801740 6.355740 116.673712 26.723240 -14.367055 -155.112561 0.000000 0.000000 0.000000 0.000000 0.000000 0.000000 62.102670 58.409944 -27.648729 159.396054 20.603728 -29.828283 13.672013 -4.817785 29.175720 47.276539 35.054880 48.551243 0.000000 0.000000 0.000000 0.000000 0.000000 0.000000 -4.189168 -0.683826 -23.560925 1.506839 3.909171 0.870888 -0.429402 -2.552197 -1.278699 0.000000 0.000000 0.000000 -3.799289 1.243154 -23.200077 4.637999 0.799670 0.907441 -5.223955 -6.614574 3.013300 0.000000 0.000000 0.000000
-34.589308 68.874134 340.762313 2.570837 0.197656 22.729249 -0.068265 0.814668 -22.648886 -0.102006 0.307284 0.089861 2.406272 -2.284838 -0.351945 0.000000 0.000000 0.000000 -44.361166 14.595902 2.312118 -164.549394 28.165955 -66.303952 7.013234 -8.493245 -157.315446 11.344212 -41.523491 129.562881 0.000000 0.000000 0.000000 0.000000 0.000000 0.000000 55.754545 56.133116 -22.699127 163.190484 18.875225 -24.590544 12.764721 -6.747294 28.563463 44.523356 25.388391 44.907544 0.000000 0.000000 0.000000 0.000000 0.000000 0.000000 -4.290070 -0.812800 -23.315242 1.511181 4.107556 0.901594 -0.645715 -2.801248 -1.244802 0.000000 0.000000 0.000000 -3.825309 1.009679 -22.967291 4.335125 1.151572 0.905086 -5.478472 -5.707906 2.737607 0.000000 0.000000 0.000000
-34.546063 68.792527 340.812415 2.643314 0.181953 22.440570 -0.114435 0.796336 -22.357928 -0.109409 0.250267 0.091944 1.596508 -2.535483 -0.498220 0.000000 0.000000 0.000000 -36.357386 9.556038 0.432972 -168.523636 31.760125 -93.329818 -17.713384 5.596723 157.846793 6.280044 -13.865165 178.374863 0.000000 0.000000 0.000000 0.000000 0.000000 0.000000 48.164936 51.852262 -16.915109 169.773036 16.432122 -14.481138 9.781043 -10.446379 25.177005 42.996741 20.106361 43.380796 0.000000 0.000000 0.000000 0.000000 0.000000 0.000000 -4.446194 -0.919869 -23.062665 1.563401 4.397556 0.954027 -1.141253 -3.163186 -1.070767 0.000000 0.000000 0.000000 -3.815399 0.888958 -22.692430 4.029382 1.403793 0.890084 -6.540517 -5.524598 3.188160 0.000000 0.000000 0.000000
-34.492673 68.687653 340.861282 2.715671 0.133705 22.217678 -0.186251 0.776579 -22.132744 -0.124196 0.184814 0.092461 0.968459 -2.706137 -0.629764 0.000000 0.000000 0.000000 -28.795502 5.009726 -0.582360 -170.296171 38.199890 -123.358701 -10.217072 -2.960823 -137.308615 -9.898863 -21.916463 96.916162 0.000000 0.000000 0.000000 0.000000 0.000000 0.000000 40.829446 46.858602 -11.895279 178.762234 15.107251 -0.820389 6.799929 -12.707374 22.499230 38.086323 14.254777 41.270667 0.000000 0.000000 0.000000 0.000000 0.000000 0.000000 -4.618191 -0.992741 -22.880070 1.486896 4.664286 0.989113 -1.136275 -3.329936 -1.003732 0.000000 0.000000 0.000000 -3.729695 0.847532 -22.458141 3.667487 1.548014 0.850492 -5.552153 -5.360071 2.715426 0.000000 0.000000 0.000000
-34.439788 68.563296 340.923709 2.759017 0.056571 22.046090 -0.269977 0.765844 -21.959813 -0.148744 0.129795 0.089898 0.660718 -2.809467 -0.728127 0.000000 0.000000 0.000000 -21.049632 1.309563 -0.900604 -171.653123 47.518009 -148.339705 -7.273122 -4.491800 -99.586735 -17.961482 -16.737688 55.268120 0.000000 0.000000 0.000000 0.000000 0.000000 0.000000 34.916068 38.178114 -7.810124 -172.139077 12.612640 15.809201 2.093056 -14.130069 19.431528 30.306933 4.611176 33.596216 0.000000 0.000000 0.000000 0.000000 0.000000 0.000000 -4.753758 -1.016362 -22.743826 1.335855 4.853698 1.005363 -0.684098 -3.200038 -0.969266 0.000000 0.000000 0.000000 -3.499168 0.917577 -22.231496 3.260403 1.490500 0.771939 -5.938495 -5.518073 3.067359 0.000000 0.000000 0.000000
